<?xml version="1.0" encoding="utf-8"?>
<!-- Generator: Adobe Illustrator 26.3.1, SVG Export Plug-In . SVG Version: 6.00 Build 0)  -->
<svg version="1.1" id="Layer_1" xmlns="http://www.w3.org/2000/svg" xmlns:xlink="http://www.w3.org/1999/xlink" x="0px" y="0px"
	 viewBox="0 0 365.9 280" style="enable-background:new 0 0 365.9 280;" xml:space="preserve">
<style type="text/css">
	.st0{fill:#424D57;}
</style>
<path class="st0" d="M322.4,70.7H39.8C22.3,70.7,8.1,56.5,8.1,39v0c0-17.5,14.2-31.7,31.7-31.7h282.6c17.5,0,31.7,14.2,31.7,31.7v0
	C354.1,56.5,339.9,70.7,322.4,70.7z"/>
<path class="st0" d="M322.4,170.7H39.8c-17.5,0-31.7-14.2-31.7-31.7v0c0-17.5,14.2-31.7,31.7-31.7h282.6c17.5,0,31.7,14.2,31.7,31.7
	v0C354.1,156.5,339.9,170.7,322.4,170.7z"/>
<path class="st0" d="M322.4,270.7H39.8c-17.5,0-31.7-14.2-31.7-31.7v0c0-17.5,14.2-31.7,31.7-31.7h282.6c17.5,0,31.7,14.2,31.7,31.7
	v0C354.1,256.5,339.9,270.7,322.4,270.7z"/>
</svg>
